# xmcd
#
# Track frame offsets: 
#        150
#        18407
#        45085
#        63173
#        85643
#        108140
#        128468
#        155034
#        181222
#        203380
#        219157
#        235502
#        255123
#
# Disc length: 3776 seconds
#
# Revision: 0
# Processed by: cddbd v1.5.2PL0 Copyright (c) Steve Scherf et al.
# Submitted via: ExactAudioCopy v1.0b4
#
DISCID=840ebe0d
DTITLE=Joe Murphy and The Water St. Blues Band - Testifyin
DYEAR=2005
DGENRE=blues
TTITLE0=Fattening Frogs For Snakes
TTITLE1=Wouldn't Treat A Dog
TTITLE2=Crazy Mixed Up World
TTITLE3=Just Enough To Keep Me Hanging On
TTITLE4=I Found A Love
TTITLE5=Heartomatic Love
TTITLE6=Can I Change My Mind?
TTITLE7=Ramblin' Woman
TTITLE8=All Night Long
TTITLE9=I Got To Go
TTITLE10=Up The Line
TTITLE11=Ay Tite Fille
TTITLE12=Sadie
EXTD=
EXTT0=
EXTT1=
EXTT2=
EXTT3=
EXTT4=
EXTT5=
EXTT6=
EXTT7=
EXTT8=
EXTT9=
EXTT10=
EXTT11=
EXTT12=
PLAYORDER=
